<svg width="119.152490234375px" height="58.419921875px" xmlns="http://www.w3.org/2000/svg" viewBox="190.4237548828125 45.7900390625 119.152490234375 58.419921875" style="background: rgba(0, 0, 0, 0);" preserveAspectRatio="xMidYMid"><defs><filter id="editing-metal-beveled"><feGaussianBlur stdDeviation="4" in="SourceAlpha" result="blur"></feGaussianBlur><feSpecularLighting surfaceScale="5" specularConstant="0.8" specularExponent="7.5" lighting-color="#0cee13" in="blur" result="specular"><fePointLight x="-250" y="-50" z="300"></fePointLight></feSpecularLighting><feComposite operator="in" in="specular" in2="SourceAlpha" result="comp"></feComposite><feComposite in="SourceGraphic" in2="comp" operator="arithmetic" k1="0" k2="1" k3="1" k4="0"></feComposite></filter></defs><g filter="url(#editing-metal-beveled)"><g transform="translate(214.2899995446205, 83.88000011444092)"><path d="M15.98-9.96L15.98-9.96L15.98-9.96Q15.98 0.26 4.90 0.26L4.90 0.26L4.90 0.26Q3.12 0.26 0.19-0.17L0.19-0.17L2.88-14.35L2.88-14.35Q3.07-15.31 3.19-15.86L3.19-15.86L3.19-15.86Q6.84-16.13 8.46-16.13L8.46-16.13L8.46-16.13Q10.08-16.13 11.57-15.79L11.57-15.79L11.57-15.79Q13.06-15.46 14.04-14.71L14.04-14.71L14.04-14.71Q15.98-13.25 15.98-9.96ZM11.04-10.85L11.04-10.85L11.04-10.85Q11.04-14.42 8.47-14.42L8.47-14.42L8.23-14.42L8.23-14.42Q8.11-14.42 7.99-14.40L7.99-14.40L5.52-1.51L5.52-1.51Q5.62-1.46 5.71-1.46L5.71-1.46L5.90-1.46L5.90-1.46Q6.79-1.46 7.72-2.02L7.72-2.02L7.72-2.02Q8.64-2.57 9.36-3.70L9.36-3.70L9.36-3.70Q11.04-6.31 11.04-10.85ZM26.93-4.06L26.93-4.06L26.93-4.06Q27.53-3.65 27.53-2.75L27.53-2.75L27.53-2.75Q27.53-1.85 27.07-1.27L27.07-1.27L27.07-1.27Q26.62-0.70 25.87-0.31L25.87-0.31L25.87-0.31Q24.34 0.48 22.68 0.48L22.68 0.48L22.68 0.48Q21.02 0.48 20.05 0.12L20.05 0.12L20.05 0.12Q19.08-0.24 18.43-0.91L18.43-0.91L18.43-0.91Q17.16-2.18 17.16-4.51L17.16-4.51L17.16-4.51Q17.16-8.14 19.13-10.34L19.13-10.34L19.13-10.34Q21.24-12.72 24.91-12.72L24.91-12.72L24.91-12.72Q27.19-12.72 28.32-11.76L28.32-11.76L28.32-11.76Q29.16-11.04 29.16-9.86L29.16-9.86L29.16-9.86Q29.16-5.64 21.86-5.64L21.86-5.64L21.86-5.64Q21.77-5.02 21.77-4.49L21.77-4.49L21.77-4.49Q21.77-3.38 22.26-2.96L22.26-2.96L22.26-2.96Q22.75-2.54 23.66-2.54L23.66-2.54L23.66-2.54Q24.58-2.54 25.55-2.96L25.55-2.96L25.55-2.96Q26.52-3.38 26.93-4.06ZM22.03-6.67L22.03-6.67L22.03-6.67Q23.74-6.67 24.72-7.73L24.72-7.73L24.72-7.73Q25.70-8.74 25.70-10.34L25.70-10.34L25.70-10.34Q25.70-10.90 25.50-11.20L25.50-11.20L25.50-11.20Q25.30-11.50 24.89-11.50L24.89-11.50L24.89-11.50Q24.48-11.50 24.13-11.34L24.13-11.34L24.13-11.34Q23.78-11.18 23.42-10.66L23.42-10.66L23.42-10.66Q22.54-9.46 22.03-6.67ZM38.69-11.83L38.69-11.83L38.69-11.83Q39.48-12.72 40.85-12.72L40.85-12.72L40.85-12.72Q41.69-12.72 42.34-12.26L42.34-12.26L42.34-12.26Q42.98-11.81 42.98-10.96L42.98-10.96L42.98-10.96Q42.98-10.10 42.72-9.19L42.72-9.19L42.72-9.19Q42.46-8.28 42.05-7.34L42.05-7.34L42.05-7.34Q41.23-5.52 40.10-4.01L40.10-4.01L40.10-4.01Q38.52-1.82 37.00-0.67L37.00-0.67L37.00-0.67Q35.47 0.48 33.82 0.48L33.82 0.48L33.82 0.48Q32.47 0.48 31.66 0.17L31.66 0.17L31.66 0.17Q31.51-4.87 31.33-6.67L31.33-6.67L31.33-6.67Q31.15-8.47 31.01-9.46L31.01-9.46L31.01-9.46Q30.77-11.38 30.05-11.83L30.05-11.83L30.05-11.83Q30.60-12.31 31.14-12.52L31.14-12.52L31.14-12.52Q31.68-12.72 32.80-12.72L32.80-12.72L32.80-12.72Q33.91-12.72 34.70-11.84L34.70-11.84L34.70-11.84Q35.50-10.97 35.65-9.42L35.65-9.42L35.65-9.42Q35.81-7.87 35.81-6L35.81-6L35.81-6Q35.81-4.13 35.66-1.87L35.66-1.87L35.66-1.87Q36.41-2.40 37.20-4.01L37.20-4.01L37.20-4.01Q38.28-6.24 38.66-8.93L38.66-8.93L38.66-8.93Q38.78-9.74 38.78-10.61L38.78-10.61L38.78-10.61Q38.78-11.47 38.69-11.83ZM53.88-3.70L53.88-3.70L53.88-3.70Q54.34-3.12 54.34-2.18L54.34-2.18L54.34-2.18Q54.34-0.89 53.38-0.20L53.38-0.20L53.38-0.20Q52.42 0.48 50.90 0.48L50.90 0.48L50.90 0.48Q50.04 0.48 48.72 0.29L48.72 0.29L48.72 0.29Q46.13-0.12 45.34-0.12L45.34-0.12L45.34-0.12Q44.54-0.12 44.23-0.08L44.23-0.08L44.23-0.08Q43.92-0.05 43.42 0L43.42 0L46.37-15.84L56.71-15.84L56.71-15.84Q56.71-14.38 56.00-13.61L56.00-13.61L56.00-13.61Q55.30-12.84 53.90-12.84L53.90-12.84L53.90-12.84Q52.51-12.84 51.10-13.49L51.10-13.49L50.35-9.29L54.62-9.29L54.62-9.29Q54.62-8.02 54-7.31L54-7.31L54-7.31Q53.38-6.60 52.33-6.60L52.33-6.60L52.33-6.60Q51.29-6.60 50.64-6.84L50.64-6.84L50.64-6.84Q49.99-7.08 49.92-7.15L49.92-7.15L49.06-2.62L49.06-2.62Q49.63-2.54 50.71-2.54L50.71-2.54L50.71-2.54Q52.56-2.54 53.88-3.70ZM64.10-12.72L64.10-12.72L64.10-12.72Q64.97-12.72 65.64-12.53L65.64-12.53L65.64-12.53Q65.66-12.62 65.71-12.89L65.71-12.89L65.83-13.63L65.83-13.63Q65.93-14.11 66.07-14.90L66.07-14.90L66.46-16.80L71.23-17.28L68.57-3.36L68.57-3.36Q68.54-3.22 68.54-2.98L68.54-2.98L68.54-2.59L68.54-2.59Q68.54-2.06 68.81-1.67L68.81-1.67L68.81-1.67Q69.07-1.27 69.50-1.27L69.50-1.27L69.50-1.27Q69.02-0.14 67.56 0.34L67.56 0.34L67.56 0.34Q67.06 0.48 66.35 0.48L66.35 0.48L66.35 0.48Q65.64 0.48 64.99 0.11L64.99 0.11L64.99 0.11Q64.34-0.26 64.15-0.89L64.15-0.89L64.15-0.89Q63.77-0.26 63 0.11L63 0.11L63 0.11Q62.23 0.48 61.12 0.48L61.12 0.48L61.12 0.48Q60 0.48 59.08 0.19L59.08 0.19L59.08 0.19Q58.15-0.10 57.58-0.72L57.58-0.72L57.58-0.72Q56.52-1.94 56.52-4.73L56.52-4.73L56.52-4.73Q56.52-8.33 58.63-10.51L58.63-10.51L58.63-10.51Q60.74-12.72 64.10-12.72ZM63.94-11.28L63.94-11.28L63.94-11.28Q63.05-11.28 62.57-10.32L62.57-10.32L62.57-10.32Q62.09-9.36 61.60-6.98L61.60-6.98L61.60-6.98Q61.10-4.61 61.10-2.47L61.10-2.47L61.10-2.47Q61.10-1.01 61.97-1.01L61.97-1.01L61.97-1.01Q62.74-1.01 63.28-1.78L63.28-1.78L63.28-1.78Q63.82-2.54 64.03-3.82L64.03-3.82L65.33-10.85L65.33-10.85Q64.82-11.28 63.94-11.28Z" fill="#1ccb15"></path></g></g><style>text {
  font-size: 64px;
  font-family: Arial Black;
  dominant-baseline: central;
  text-anchor: middle;
}</style></svg>